<?xml version="1.0" encoding="UTF-8"?>
<!DOCTYPE svg PUBLIC "-//W3C//DTD SVG 1.0//EN" "http://www.w3.org/TR/2001/REC-SVG-20010904/DTD/svg10.dtd">
<!-- Creator: CorelDRAW 2019 (64-Bit) -->
<svg xmlns="http://www.w3.org/2000/svg" xml:space="preserve" width="101.896mm" height="30.805mm" version="1.0" shape-rendering="geometricPrecision" text-rendering="geometricPrecision" image-rendering="optimizeQuality" fill-rule="evenodd" clip-rule="evenodd"
viewBox="0 0 10175.38 3076.19"
 xmlns:xlink="http://www.w3.org/1999/xlink"
 xmlns:xodm="http://www.corel.com/coreldraw/odm/2003">
 <g id="Capa_x0020_1">
  <metadata id="CorelCorpID_0Corel-Layer"/>
  <g id="_2612266196784">
   <g>
    <circle fill="#A81E23" cx="1266.22" cy="2897.47" r="178.73"/>
    <circle fill="#E15857" cx="1235.74" cy="2856.88" r="111.9"/>
    <circle fill="#DFB5B5" cx="1208.92" cy="2800.33" r="48.69"/>
   </g>
   <g>
    <circle fill="#A81E23" cx="1266.22" cy="178.73" r="178.73"/>
    <circle fill="#E15857" cx="1235.74" cy="138.14" r="111.9"/>
    <circle fill="#DFB5B5" cx="1208.92" cy="81.6" r="48.69"/>
   </g>
   <g>
    <circle fill="#A81E23" cx="994.35" cy="450.61" r="178.73"/>
    <circle fill="#E15857" cx="963.86" cy="410.02" r="111.9"/>
    <circle fill="#DFB5B5" cx="937.05" cy="353.47" r="48.69"/>
   </g>
   <g>
    <circle fill="#A81E23" cx="1538.1" cy="450.61" r="178.73"/>
    <circle fill="#E15857" cx="1507.61" cy="410.02" r="111.9"/>
    <circle fill="#DFB5B5" cx="1480.79" cy="353.47" r="48.69"/>
   </g>
   <g>
    <circle fill="#A81E23" cx="722.48" cy="722.48" r="178.73"/>
    <circle fill="#E15857" cx="691.99" cy="681.89" r="111.9"/>
    <circle fill="#DFB5B5" cx="665.18" cy="625.35" r="48.69"/>
   </g>
   <g>
    <circle fill="#A81E23" cx="1266.22" cy="722.48" r="178.73"/>
    <circle fill="#E15857" cx="1235.74" cy="681.89" r="111.9"/>
    <circle fill="#DFB5B5" cx="1208.92" cy="625.35" r="48.69"/>
   </g>
   <g>
    <circle fill="#A81E23" cx="450.6" cy="994.35" r="178.73"/>
    <circle fill="#E15857" cx="420.12" cy="953.77" r="111.9"/>
    <circle fill="#DFB5B5" cx="393.3" cy="897.22" r="48.69"/>
   </g>
   <g>
    <circle fill="#A81E23" cx="2081.84" cy="994.35" r="178.73"/>
    <circle fill="#E15857" cx="2051.36" cy="953.77" r="111.9"/>
    <circle fill="#DFB5B5" cx="2024.54" cy="897.22" r="48.69"/>
   </g>
   <g>
    <circle fill="#A81E23" cx="178.73" cy="1266.23" r="178.73"/>
    <circle fill="#E15857" cx="148.25" cy="1225.64" r="111.9"/>
    <circle fill="#DFB5B5" cx="121.43" cy="1169.09" r="48.69"/>
   </g>
   <g>
    <circle fill="#A81E23" cx="1809.97" cy="1266.23" r="178.73"/>
    <circle fill="#E15857" cx="1779.48" cy="1225.64" r="111.9"/>
    <circle fill="#DFB5B5" cx="1752.67" cy="1169.09" r="48.69"/>
   </g>
   <g>
    <circle fill="#A81E23" cx="2353.72" cy="1266.23" r="178.73"/>
    <circle fill="#E15857" cx="2323.23" cy="1225.64" r="111.9"/>
    <circle fill="#DFB5B5" cx="2296.41" cy="1169.09" r="48.69"/>
   </g>
   <g>
    <circle fill="#A81E23" cx="450.6" cy="1538.1" r="178.73"/>
    <circle fill="#E15857" cx="420.12" cy="1497.51" r="111.9"/>
    <circle fill="#DFB5B5" cx="393.3" cy="1440.97" r="48.69"/>
   </g>
   <g>
    <circle fill="#A81E23" cx="2081.84" cy="1538.1" r="178.73"/>
    <circle fill="#E15857" cx="2051.36" cy="1497.51" r="111.9"/>
    <circle fill="#DFB5B5" cx="2024.54" cy="1440.97" r="48.69"/>
   </g>
   <g>
    <circle fill="#A81E23" cx="1538.1" cy="1538.1" r="178.73"/>
    <circle fill="#E15857" cx="1507.61" cy="1497.51" r="111.9"/>
    <circle fill="#DFB5B5" cx="1480.79" cy="1440.97" r="48.69"/>
   </g>
   <g>
    <circle fill="#A81E23" cx="178.73" cy="1809.97" r="178.73"/>
    <circle fill="#E15857" cx="148.25" cy="1769.39" r="111.9"/>
    <circle fill="#DFB5B5" cx="121.43" cy="1712.84" r="48.69"/>
   </g>
   <g>
    <circle fill="#A81E23" cx="722.48" cy="1809.97" r="178.73"/>
    <circle fill="#E15857" cx="691.99" cy="1769.39" r="111.9"/>
    <circle fill="#DFB5B5" cx="665.18" cy="1712.84" r="48.69"/>
   </g>
   <g>
    <circle fill="#A81E23" cx="2353.72" cy="1809.97" r="178.73"/>
    <circle fill="#E15857" cx="2323.23" cy="1769.39" r="111.9"/>
    <circle fill="#DFB5B5" cx="2296.41" cy="1712.84" r="48.69"/>
   </g>
   <g>
    <circle fill="#A81E23" cx="450.6" cy="2081.85" r="178.73"/>
    <circle fill="#E15857" cx="420.12" cy="2041.26" r="111.9"/>
    <circle fill="#DFB5B5" cx="393.3" cy="1984.71" r="48.69"/>
   </g>
   <g>
    <circle fill="#A81E23" cx="994.35" cy="2081.85" r="178.73"/>
    <circle fill="#E15857" cx="963.86" cy="2041.26" r="111.9"/>
    <circle fill="#DFB5B5" cx="937.05" cy="1984.71" r="48.69"/>
   </g>
   <g>
    <circle fill="#A81E23" cx="2081.84" cy="2081.85" r="178.73"/>
    <circle fill="#E15857" cx="2051.36" cy="2041.26" r="111.9"/>
    <circle fill="#DFB5B5" cx="2024.54" cy="1984.71" r="48.69"/>
   </g>
   <g>
    <circle fill="#A81E23" cx="722.48" cy="2353.72" r="178.73"/>
    <circle fill="#E15857" cx="691.99" cy="2313.13" r="111.9"/>
    <circle fill="#DFB5B5" cx="665.18" cy="2256.59" r="48.69"/>
   </g>
   <g>
    <circle fill="#A81E23" cx="1809.97" cy="2353.72" r="178.73"/>
    <circle fill="#E15857" cx="1779.48" cy="2313.13" r="111.9"/>
    <circle fill="#DFB5B5" cx="1752.67" cy="2256.59" r="48.69"/>
   </g>
   <g>
    <circle fill="#A81E23" cx="1266.22" cy="2353.72" r="178.73"/>
    <circle fill="#E15857" cx="1235.74" cy="2313.13" r="111.9"/>
    <circle fill="#DFB5B5" cx="1208.92" cy="2256.59" r="48.69"/>
   </g>
   <g>
    <circle fill="#A81E23" cx="994.35" cy="2625.59" r="178.73"/>
    <circle fill="#E15857" cx="963.86" cy="2585" r="111.9"/>
    <circle fill="#DFB5B5" cx="937.05" cy="2528.46" r="48.69"/>
   </g>
   <g>
    <circle fill="#A81E23" cx="1538.1" cy="2625.59" r="178.73"/>
    <circle fill="#E15857" cx="1507.61" cy="2585" r="111.9"/>
    <circle fill="#DFB5B5" cx="1480.79" cy="2528.46" r="48.69"/>
   </g>
  </g>
  <g id="_2612266233712">
   <path fill="#020202" d="M4985.17 1431.88c146.51,-41.85 244.16,51.08 254.76,184.74 24.88,313.78 -132.15,387.9 -300.73,304.23 -57.85,-28.71 -75.41,-69.9 -76.26,-158.16 -1.51,-156.73 -22.86,-289.37 122.23,-330.82zm-121.84 -116.79c0.28,-123.4 56.87,-447.43 -149.77,-369.05 -75.47,28.63 -57.61,119.4 -57.2,198.48 0.45,85.02 0.03,170.13 0.07,255.16 0.17,337.58 -61.41,662.85 288.75,729.54 382.31,72.81 516.11,-168.18 502.14,-515.29 -13.46,-334.46 -284.81,-493.86 -583.98,-298.84z"/>
   <path fill="#020202" d="M3430.51 1896.49c-106.78,90.33 -391.87,97.87 -402.09,-173.91 -9,-239.29 -43.34,-473.68 139.76,-534.82 109,-36.4 178.25,-3.33 266.96,35.2 117.32,50.95 204.42,-44.4 121.97,-135.4 -101.78,-112.33 -385.46,-129.48 -532.8,-42.79 -167.21,98.38 -199.84,229.38 -199.63,475.75 0.21,251.43 -6.95,404.42 150.02,525.29 167.02,128.61 665.02,147.35 663.56,-162.15 -0.48,-102.05 7.83,-240.75 -13.51,-328.67 -90.88,-34.45 -327.74,-55.56 -385.05,30.08 -44.22,141.51 79.57,131.92 194.23,133.05l-3.42 178.36z"/>
   <path fill="#020202" d="M7247.22 1421.83c149.01,-29.76 223.36,64.84 229.11,205.42 6.34,155.09 1.67,287.47 -140.82,317.49 -155.98,32.85 -232.65,-66.84 -235.33,-208.72 -2.88,-152.93 -10.49,-282.72 147.04,-314.19zm431.26 394.09c39.66,-270.78 -28.62,-500.99 -254.18,-567.07 -121.47,-35.59 -263.08,-17.53 -359.26,36.67 -221.19,124.64 -199.84,503.92 -135.51,645.86 134.35,296.44 690,286.87 748.95,-115.46z"/>
   <path fill="#020202" d="M3950.24 1789.07c-18.69,-143.42 -8,-304.69 95.9,-353.81 315.88,-149.35 367.18,410.83 174.75,497.48 -128.76,57.98 -254.61,-20.69 -270.64,-143.67zm-202.76 40.28c36.13,230.27 263.84,365.19 534.12,283.79 222.12,-66.9 288.87,-290.43 243.04,-568.72 -74.69,-453.61 -898.3,-487.32 -777.16,284.93z"/>
   <path fill="#020202" d="M8898.97 1577.29c15.01,-98.85 61.33,-172.92 173.84,-173.97 122.24,-1.15 172.74,62.67 176.21,177.76l-350.05 -3.79zm1.27 159.91c273.21,-23.69 649.03,112.1 525.21,-273.57 -106.6,-332.05 -731.48,-355.65 -730.99,204.55 0.17,206.47 21.61,315.78 162.73,403.41 253,157.08 610.63,-6.23 537.98,-133.95 -42.98,-75.56 -132.9,-5.64 -190.84,10.02 -182.75,49.4 -312.4,-18.62 -304.09,-210.46z"/>
   <path fill="#020202" d="M8129.76 1433.67c94.19,-28.7 187.19,6.19 219.36,72.81 46.53,96.33 0.06,469.85 24.41,563.84 21.66,83.58 151.64,82 188.39,28.02 33.46,-49.15 22.27,-489.45 9.63,-575.28 -55.67,-377.98 -589.88,-370.5 -726.93,-102.6 -64.96,126.98 -38.89,396.48 -40.5,556.83 -0.62,61 -3.36,185.96 134.65,156.04 117.58,-25.49 59.2,-289.01 70.02,-519.55 4.64,-98.65 37.33,-154.61 120.98,-180.11z"/>
   <path fill="#020202" d="M9568 1905.31c-252.84,185.98 674.95,448.88 603.44,-87.41 -25.84,-193.78 -206.13,-179.28 -359.22,-258.45 -98.4,-50.89 -46.18,-156.93 79.04,-152.72 95.37,3.21 168.41,87.15 233.75,39.23 88.75,-65.09 -13.04,-158.25 -59.38,-179.39 -277.18,-126.46 -628.88,78.52 -490.96,342.39 85.09,162.81 348.81,147.33 391.4,228.5 57.01,108.65 -75.27,139.74 -168.46,127.34 -115.76,-15.41 -129.12,-105.34 -229.61,-59.5z"/>
   <path fill="#020202" d="M5576.34 1903.73c-91.4,65.52 -19.86,141.23 39.3,174.26 165.36,92.3 504.75,96.08 558.28,-138.87 81.81,-359.05 -351.75,-319.2 -397.22,-413.92 -40.12,-83.58 57.03,-125.5 140.4,-116.95 77.47,7.96 150.66,79.97 211.24,42.68 77.6,-47.75 18.55,-144.06 -35.58,-173.54 -124.28,-67.69 -341.05,-65.57 -443.66,28.89 -119.33,109.86 -126.42,296.41 3.94,384.35 58.27,39.3 124.84,56.43 200.87,81.46 236.43,77.83 122.85,236.11 -80.57,187.26 -91.62,-22 -98.67,-94.92 -197,-55.62z"/>
   <path fill="#020202" d="M6555.41 1411.52c87.09,0.19 200.23,21.22 204.98,-80.07 4.77,-101.61 -110.69,-82.76 -199.54,-82.8 -15.55,-113.45 36.54,-259.83 -106.85,-258.32 -137,1.45 -100.68,150.53 -105.81,261.57 -72.44,-10.71 -140.06,-2.1 -139.57,80.99 0.49,85.19 63.68,80.06 142.9,78.31 -6.5,219.35 -46.07,614.55 118.6,696.88 82.63,41.32 282.69,39.06 332.07,-25.06 32.53,-42.25 32.86,-122.43 -32.6,-139 -53.62,-13.58 -98.62,17.34 -176.11,0.56 -71.26,-95.32 -35.41,-389.72 -38.06,-533.06z"/>
  </g>
 </g>
</svg>
