<?xml version="1.0" encoding="UTF-8"?>
<!DOCTYPE svg PUBLIC "-//W3C//DTD SVG 1.0//EN" "http://www.w3.org/TR/2001/REC-SVG-20010904/DTD/svg10.dtd">
<!-- Creator: CorelDRAW 2019 (64-Bit) -->
<svg xmlns="http://www.w3.org/2000/svg" xml:space="preserve" width="101.896mm" height="30.7624mm" version="1.0" shape-rendering="geometricPrecision" text-rendering="geometricPrecision" image-rendering="optimizeQuality" fill-rule="evenodd" clip-rule="evenodd"
viewBox="0 0 9909.01 2991.52"
 xmlns:xlink="http://www.w3.org/1999/xlink"
 xmlns:xodm="http://www.corel.com/coreldraw/odm/2003">
 <g id="Capa_x0020_1">
  <metadata id="CorelCorpID_0Corel-Layer"/>
  <g id="_2612241858304">
   <path fill="#D9B82D" d="M967.2 579.69l254.99 3.05 -1.94 1759.99 -768.92 -210.05 -0.37 -312.63 514.83 140.86 1.41 -1381.23zm366.72 -344.26l1080.67 1.38 -208.08 2308.29 -874.67 235.19 2.08 -2544.86zm-1333.92 -234.38c58.29,849.99 175.06,1744.63 236.23,2609.39 7.07,99.96 -5.49,81.03 81.97,104.05 307.71,81.04 691.95,210.26 975.65,275.73 66.74,15.4 462.65,-111.36 560.03,-138.8 187.93,-52.95 370.19,-99.43 560.46,-156.42l238.86 -2695.01 -2653.19 1.05z"/>
   <path fill="#FFD839" d="M1692.91 890.87l0.28 468.98 525.6 -62.44 -66.48 859.82 -716.56 185.43 0.23 -302.34c50.93,-32.47 425.53,-122.13 512.31,-141.6l13.97 -265.16 -526.14 92.39 -0.17 -1146.37 842.3 0.17c-0.68,66.56 -9.48,136.2 -15.13,200.92 -16.62,190.6 26.86,74.67 -570.22,110.2zm-361.06 1889.42l874.67 -235.19 208.08 -2308.29 -1080.67 -1.38 -2.08 2544.86z"/>
   <path fill="#FFFFFE" d="M1692.91 890.87c597.08,-35.53 553.6,80.4 570.22,-110.2 5.65,-64.72 14.45,-134.36 15.13,-200.92l-842.3 -0.17 0.17 1146.37 526.14 -92.39 -13.97 265.16c-86.78,19.47 -461.38,109.13 -512.31,141.6l-0.23 302.34 716.56 -185.43 66.48 -859.82 -525.6 62.44 -0.28 -468.98z"/>
   <polygon fill="#ECECEC" points="965.79,1960.92 450.96,1820.06 451.33,2132.68 1220.24,2342.74 1222.19,582.75 967.2,579.69 "/>
  </g>
  <g id="_2612241858880">
   <path fill="black" d="M9069.59 1607.26c-107.25,234.96 -380.06,41.1 -274.88,-210.04 31.67,-75.61 143.57,-126.75 224.25,-61.84 59.24,47.67 91.66,181.98 50.63,271.88zm-529.31 -463.25c20.62,313.31 10.27,694.33 7.53,1022.32l234.96 -0.13 -0.18 -351.18c549.13,303.85 721.05,-513.05 342.32,-665.13 -168.03,-67.48 -274.7,13.69 -360.43,87.25l-27.97 -82.39c-0.74,-6.35 -2.59,-8.4 -4.99,-11.94l-191.23 1.2z"/>
   <path fill="black" d="M6617.94 903.74c-385.08,-198.36 -856.56,144.74 -582.46,425.91 95.2,97.65 361.31,145.66 385.59,237.9 56.77,215.66 -351.16,94.48 -426.1,70.67l-46.12 176.91c50.05,37.57 125.66,54.08 193.32,62.31 193.28,23.51 468.71,-17.37 513.05,-224.28 91.09,-425.14 -396.86,-298.74 -454.35,-525.57 74.69,-152.21 240.35,-76.5 371.99,-44.34l45.09 -179.51z"/>
   <path fill="black" d="M3951.87 1529.85c1.57,72.66 4.69,128.85 -40.32,165.63 -159.5,130.33 -330.34,-177.4 40.32,-165.63zm40.37 329.79c27.92,16.77 14.15,9.75 52.91,12.65 36.58,2.73 102.22,-1.67 142.58,-1.67 -1.49,-185.9 28.78,-523.83 -76.63,-648.03 -118.74,-139.91 -405.64,-109.98 -562.48,-32.3l50.33 140.01c92.39,-30.55 303.95,-108.23 342.82,37.12 -46.94,26.94 -117.33,19.52 -170.27,29.34 -135.89,25.23 -284.92,101.6 -277.78,274.71 9.25,224.18 306.2,263.6 457,137.83l41.51 50.33z"/>
   <path fill="black" d="M4926.46 1498.24c50.45,-129.15 97.11,-237.09 134.99,-354.19l-249.07 0.2c-21.24,79.49 -44.39,157.98 -69.73,245.5 -21.4,73.96 -34.19,192.79 -70.27,249.3l-145.12 -495.49 -253.9 -2.01c15.9,103.98 216.35,548.82 265.36,728.87l247.02 -0.76 140.72 -371.42z"/>
   <path fill="black" d="M2816.76 1859.98c692.57,168.1 545.09,-463.1 546.68,-993.12l-235.35 0.18c0.09,188.14 -0.82,376.46 0.21,564.58 1.15,208.77 -42.35,324.19 -279.99,242.97l-31.55 185.39z"/>
   <path fill="black" d="M9401.9 1306.78l101.82 8.02c17.64,170.38 -112.57,681.34 384.46,553.25 20.63,-51.17 12.56,-112.26 13.26,-172.81 -120.22,7.67 -157.43,4.89 -162.91,-118.7 -3.21,-72.49 -4.75,-196.47 5.78,-265.76l164.7 -6.38 -1.94 -159.08 -167.8 -4.55 -0.63 -195.18 -230.27 65.92 -2.56 116.06 -53.84 16c-40.6,12.27 -7.65,-10.14 -46.92,15.98l-3.16 147.22z"/>
   <path fill="black" d="M7400.05 1159.56c-182.39,-84.91 -609.14,-23.94 -611.8,351.69 -2.3,323.26 312.38,445.52 615.93,339.07l-30.81 -165.71c-176.82,48.63 -351.86,-3.03 -344.72,-187.51 6.96,-179.89 168.78,-209.85 340.05,-173.84l31.35 -163.7z"/>
   <path fill="black" d="M7770.43 1870.65c0,-404.97 -66.88,-541.59 232.31,-528.46l-6.04 -212.29c-186.33,-19.36 -208.84,79.93 -259.12,133.95l-13.33 -119.18 -196.9 -3.28 0.44 728.38 242.65 0.88z"/>
   <polygon fill="black" points="8129.84,1870.6 8357.04,1867.31 8357.14,1145.06 8120.78,1140.91 "/>
   <path fill="black" d="M8347.01 999.67c94.73,-125.92 -122.88,-242.35 -207.84,-127.49 -105.59,142.75 113.85,252.44 207.84,127.49z"/>
   <path fill="black" d="M5567.49 1529.85c1.57,72.66 4.69,128.85 -40.32,165.63 -159.5,130.33 -330.34,-177.4 40.32,-165.63zm40.37 329.79c27.92,16.77 14.15,9.75 52.91,12.65 36.58,2.73 102.22,-1.67 142.58,-1.67 -1.49,-185.9 28.78,-523.83 -76.63,-648.03 -118.74,-139.91 -405.64,-109.98 -562.48,-32.3l50.34 140.01c92.38,-30.55 303.94,-108.23 342.82,37.12 -46.95,26.94 -117.34,19.52 -170.28,29.34 -135.89,25.23 -284.92,101.6 -277.78,274.71 9.25,224.18 306.2,263.6 457,137.83l41.51 50.33z"/>
  </g>
 </g>
</svg>
