<?xml version="1.0" encoding="UTF-8"?>
<!DOCTYPE svg PUBLIC "-//W3C//DTD SVG 1.0//EN" "http://www.w3.org/TR/2001/REC-SVG-20010904/DTD/svg10.dtd">
<!-- Creator: CorelDRAW 2019 (64-Bit) -->
<svg xmlns="http://www.w3.org/2000/svg" xml:space="preserve" width="67.0558mm" height="20.8482mm" version="1.0" shape-rendering="geometricPrecision" text-rendering="geometricPrecision" image-rendering="optimizeQuality" fill-rule="evenodd" clip-rule="evenodd"
viewBox="0 0 4742.51 1474.49"
 xmlns:xlink="http://www.w3.org/1999/xlink"
 xmlns:xodm="http://www.corel.com/coreldraw/odm/2003">
 <g id="Capa_x0020_1">
  <metadata id="CorelCorpID_0Corel-Layer"/>
  <path fill="black" fill-rule="nonzero" d="M4164.3 446.38l165.79 0 104.74 312.22c8.93,27.14 15.08,59.23 18.34,96.3l3 0c3.61,-34.08 10.71,-66.2 21.3,-96.3l102.75 -312.22 162.3 0 -234.79 625.94c-21.5,57.89 -52.19,101.25 -92.03,130.05 -39.91,28.8 -86.46,43.16 -139.76,43.16 -26.16,0 -51.8,-2.8 -76.91,-8.44l0 -120.11c18.2,4.26 38.05,6.41 59.55,6.41 26.78,0 50.2,-8.18 70.24,-24.56 20.04,-16.35 35.67,-41.08 46.88,-74.18l8.93 -27.34 -220.32 -550.95zm-293.88 110.7c-37.36,0 -64.66,11.5 -81.87,34.5 -17.2,23.04 -26.19,60.99 -26.8,113.96l0 16.35c0,59.59 8.83,102.26 26.51,128.09 17.72,25.81 45.77,38.71 84.18,38.71 31.08,0 55.8,-14.34 74.18,-42.94 18.37,-28.6 27.56,-70.24 27.56,-124.84 0,-54.6 -9.29,-95.58 -27.82,-122.88 -18.5,-27.3 -43.81,-40.95 -75.94,-40.95l0 0zm48.67 -121.15c65.51,0 116.82,25.6 153.93,76.72 37.04,51.11 55.55,121.19 55.55,210.22 0,91.65 -19.12,162.63 -57.31,212.9 -38.24,50.33 -90.27,75.45 -156.14,75.45 -65.19,0 -116.3,-23.69 -153.37,-71.02l-10.42 0 -25.28 61.09 -115.68 0 0 -772.32 151.39 0 0 179.7c0,22.84 -2.02,59.39 -6,109.72l6 0c35.38,-54.92 87.86,-82.45 157.35,-82.45zm-583.76 565.41l-20.33 -70.99 -7.94 0c-16.22,25.84 -39.22,45.74 -68.97,59.81 -29.8,14.07 -63.75,21.08 -101.77,21.08 -65.22,0 -114.35,-17.43 -147.45,-52.35 -33.1,-34.92 -49.62,-85.12 -49.62,-150.64l0 -361.87 151.39 0 0 324.15c0,40.04 7.13,70.07 21.37,90.11 14.21,20.04 36.85,30 67.96,30 42.39,0 72.97,-14.17 91.84,-42.41 18.86,-28.31 28.3,-75.19 28.3,-140.71l0 -261.11 151.39 0.01 0 554.96 -116.17 0 0 -0.04zm-898.42 -403.53l49.64 0c48.61,0 84.54,-8.15 107.71,-24.34 23.13,-16.22 34.73,-41.7 34.73,-76.43 0,-34.44 -11.83,-58.9 -35.51,-73.46 -23.65,-14.56 -60.3,-21.86 -109.92,-21.86l-46.68 0 0 196.08 0.04 0zm0 125.1l0 278.44 -153.9 0 0 -725.73 211.46 0c98.58,0 171.55,17.95 218.89,53.86 47.34,35.9 71.01,90.43 71.01,163.54 0,42.71 -11.75,80.69 -35.28,113.92 -23.49,33.26 -56.71,59.35 -99.79,78.21l213.48 316.17 -170.77 -0.01 -173.21 -278.44 -81.9 0 0 0.04z"/>
  <g id="_2612275248096">
   <path fill="#D91404" fill-rule="nonzero" d="M986.22 65.88c83.52,-21.56 168.25,-38.38 252.49,-57.19 5.43,-1.23 10.76,-3.03 16.13,-4.57l-0.81 -4.12 -361.91 48.67c34,14.86 60.18,25.95 94.11,17.2l0 0z"/>
   <path fill="#D91404" fill-rule="nonzero" d="M10.12 1183.43c49.56,-114.91 98.84,-229.91 148.56,-344.71 4.99,-11.54 4.62,-19.34 -5.12,-28.6 -20.81,-19.82 -40.12,-41.15 -62.87,-64.78l-90.69 447.65 3.34 1.59c2.31,-3.71 5.09,-7.16 6.78,-11.15l0 0z"/>
   <path fill="#D91404" fill-rule="nonzero" d="M1221.28 1469.34l-369.61 -50.46c-153.53,-20.96 -306.78,-44.02 -460.66,-61.76 -55.8,-6.42 -113.1,-0.5 -169.68,0.45 -46.49,0.79 -92.98,2.56 -139.46,4.03 -4.8,0.13 -9.57,1.1 -14.32,6.25 384.3,35.54 768.63,71.06 1152.91,106.62l0.81 -5.14z"/>
   <path fill="#D91404" fill-rule="nonzero" d="M1084.9 96.21c148.44,41.08 296.89,82.14 450.52,124.64l-74.44 -212.1c-126.14,27.98 -250.78,55.61 -375.41,83.24l-0.68 4.22 0 0z"/>
   <path fill="#D91404" fill-rule="nonzero" d="M1405.56 227.06c-55.28,-14.64 -110.51,-29.34 -165.85,-43.88 -79.47,-20.89 -159.01,-41.54 -238.45,-62.64 -9.92,-2.63 -17.12,-4.34 -22.94,7.62 -28.07,57.51 -57.03,114.61 -85.55,171.9 -0.88,1.78 -0.71,4.1 -1.39,8.52 172.13,-26.08 343.12,-52 514.07,-77.9l0.11 -3.61 0 0z"/>
   <path fill="#D91404" fill-rule="nonzero" d="M352.81 1205.06l4.29 -0.93c41.54,-172.82 83.71,-344.45 126.15,-524.01 -94.64,49.17 -184.93,96.1 -277.71,144.32 47.32,123.06 97.81,252.83 147.26,380.62l0 0z"/>
   <path fill="#D91404" fill-rule="nonzero" d="M184.29 881.58l-181.75 434.46c116.46,-3.44 229.39,-6.78 346.15,-10.23 -54.82,-141.47 -108.56,-280.17 -164.4,-424.24l0 0z"/>
   <path fill="#D91404" fill-rule="nonzero" d="M533.44 646.05c173.76,56.42 344.07,111.7 519.3,168.58 -65.07,-158.54 -127.92,-311.54 -192.08,-467.79l-327.22 299.21 0 0z"/>
   <path fill="#D91404" fill-rule="nonzero" d="M903.32 350.63l194.14 472.24c126.73,-190.36 250.93,-376.95 377.95,-567.8 -192.94,32.24 -381.29,63.69 -572.09,95.56z"/>
   <path fill="#D91404" fill-rule="nonzero" d="M525.48 687.02c-47.39,200.31 -94.56,399.5 -143.25,605.23 228.38,-147.15 451.49,-290.9 673.1,-433.71 -176.37,-57.1 -352.18,-114.01 -529.85,-171.52l0 0z"/>
   <path fill="#D91404" fill-rule="nonzero" d="M177.12 764.76c4.65,4.41 16.27,6.96 21.64,4.31 95.32,-46.86 191.25,-92.66 284.5,-143.37 30.38,-16.51 53.74,-46.15 79.96,-70.17 86.74,-79.54 173.32,-159.26 259.91,-238.99 5.31,-4.9 11.56,-9.63 14.74,-15.8 31.1,-60.79 61.64,-121.85 93.28,-184.71 -37.73,-14.14 -73.5,-28.03 -109.7,-40.66 -4.91,-1.71 -12.63,1.7 -17.99,4.67 -83.79,46.83 -169.17,91.14 -250.32,142.2 -40.61,25.54 -73.7,63.17 -109.64,95.98 -57.92,52.87 -115.8,105.88 -172.89,159.69 -15.16,14.27 -28.97,30.59 -40.75,47.75 -39.07,56.86 -76.93,114.53 -116.57,173.86 22.19,22.94 42.31,44.85 63.85,65.23l0 0z"/>
   <path fill="#D91404" fill-rule="nonzero" d="M1533.64 253.15c-30.02,45.06 -60.09,90.1 -90.07,135.19 -102.95,154.88 -205.87,309.74 -308.7,464.68 -5.73,8.65 -13.15,15.5 -5.09,28.79 99.39,164.08 197.96,328.69 296.78,493.1 15.59,25.97 31.37,51.83 51.55,76.75l59.92 -1197.21 -4.39 -1.3z"/>
   <path fill="#D91404" fill-rule="nonzero" d="M1093.99 890.65c-223.55,144.07 -445.07,286.83 -672.43,433.32 340.49,46.49 674.91,92.14 1015.95,138.71 -116.17,-193.47 -229.37,-381.95 -343.52,-572.02l0 0z"/>
  </g>
 </g>
</svg>
